{
	"patcher" : 	{
		"fileversion" : 1,
		"rect" : [ 153.0, 58.0, 600.0, 426.0 ],
		"bglocked" : 0,
		"defrect" : [ 153.0, 58.0, 600.0, 426.0 ],
		"openrect" : [ 0.0, 0.0, 0.0, 0.0 ],
		"openinpresentation" : 0,
		"default_fontsize" : 12.0,
		"default_fontface" : 0,
		"default_fontname" : "Arial",
		"gridonopen" : 0,
		"gridsize" : [ 15.0, 15.0 ],
		"gridsnaponopen" : 0,
		"toolbarvisible" : 1,
		"boxanimatetime" : 200,
		"imprint" : 0,
		"enablehscroll" : 1,
		"enablevscroll" : 1,
		"devicewidth" : 0.0,
		"boxes" : [ 			{
				"box" : 				{
					"maxclass" : "newobj",
					"text" : "metro 500",
					"id" : "obj-15",
					"fontsize" : 12.0,
					"outlettype" : [ "bang" ],
					"fontname" : "Arial",
					"numinlets" : 2,
					"patching_rect" : [ 455.0, 268.0, 65.0, 20.0 ],
					"numoutlets" : 1
				}

			}
, 			{
				"box" : 				{
					"maxclass" : "newobj",
					"text" : "random 128",
					"id" : "obj-16",
					"fontsize" : 12.0,
					"outlettype" : [ "int" ],
					"fontname" : "Arial",
					"numinlets" : 2,
					"patching_rect" : [ 439.0, 307.0, 75.0, 20.0 ],
					"numoutlets" : 1
				}

			}
, 			{
				"box" : 				{
					"maxclass" : "toggle",
					"id" : "obj-13",
					"outlettype" : [ "int" ],
					"numinlets" : 1,
					"patching_rect" : [ 450.0, 212.0, 20.0, 20.0 ],
					"numoutlets" : 1
				}

			}
, 			{
				"box" : 				{
					"maxclass" : "newobj",
					"text" : "metro 500",
					"id" : "obj-12",
					"fontsize" : 12.0,
					"outlettype" : [ "bang" ],
					"fontname" : "Arial",
					"numinlets" : 2,
					"patching_rect" : [ 362.0, 266.0, 65.0, 20.0 ],
					"numoutlets" : 1
				}

			}
, 			{
				"box" : 				{
					"maxclass" : "newobj",
					"text" : "random 128",
					"id" : "obj-10",
					"fontsize" : 12.0,
					"outlettype" : [ "int" ],
					"fontname" : "Arial",
					"numinlets" : 2,
					"patching_rect" : [ 346.0, 305.0, 75.0, 20.0 ],
					"numoutlets" : 1
				}

			}
, 			{
				"box" : 				{
					"maxclass" : "message",
					"text" : "print",
					"id" : "obj-9",
					"fontsize" : 12.0,
					"outlettype" : [ "" ],
					"fontname" : "Arial",
					"numinlets" : 2,
					"patching_rect" : [ 300.0, 213.0, 34.0, 18.0 ],
					"numoutlets" : 1
				}

			}
, 			{
				"box" : 				{
					"maxclass" : "newobj",
					"text" : "print data",
					"id" : "obj-40",
					"fontsize" : 11.595187,
					"fontname" : "Arial",
					"numinlets" : 1,
					"patching_rect" : [ 122.0, 292.0, 59.0, 20.0 ],
					"numoutlets" : 0
				}

			}
, 			{
				"box" : 				{
					"maxclass" : "number",
					"id" : "obj-8",
					"fontsize" : 12.0,
					"outlettype" : [ "int", "bang" ],
					"fontname" : "Arial",
					"numinlets" : 1,
					"patching_rect" : [ 249.0, 44.0, 50.0, 20.0 ],
					"numoutlets" : 2
				}

			}
, 			{
				"box" : 				{
					"maxclass" : "number",
					"id" : "obj-7",
					"fontsize" : 12.0,
					"outlettype" : [ "int", "bang" ],
					"fontname" : "Arial",
					"numinlets" : 1,
					"patching_rect" : [ 185.0, 43.0, 50.0, 20.0 ],
					"numoutlets" : 2
				}

			}
, 			{
				"box" : 				{
					"maxclass" : "newobj",
					"text" : "scale 0 127 0 255",
					"id" : "obj-1",
					"fontsize" : 10.0,
					"outlettype" : [ "" ],
					"fontname" : "Arial",
					"numinlets" : 6,
					"patching_rect" : [ 164.0, 188.0, 102.0, 18.0 ],
					"numoutlets" : 1
				}

			}
, 			{
				"box" : 				{
					"maxclass" : "newobj",
					"text" : "!- 127",
					"id" : "obj-2",
					"fontsize" : 10.0,
					"outlettype" : [ "int" ],
					"fontname" : "Arial",
					"numinlets" : 2,
					"patching_rect" : [ 164.0, 211.0, 45.0, 18.0 ],
					"numoutlets" : 1
				}

			}
, 			{
				"box" : 				{
					"maxclass" : "newobj",
					"text" : "noteout",
					"id" : "obj-3",
					"fontsize" : 10.0,
					"fontname" : "Arial",
					"numinlets" : 3,
					"patching_rect" : [ 217.0, 160.0, 45.0, 18.0 ],
					"numoutlets" : 0
				}

			}
, 			{
				"box" : 				{
					"maxclass" : "newobj",
					"text" : "stripnote",
					"id" : "obj-4",
					"fontsize" : 10.0,
					"outlettype" : [ "int", "int" ],
					"fontname" : "Arial",
					"numinlets" : 2,
					"patching_rect" : [ 119.0, 163.0, 55.0, 18.0 ],
					"numoutlets" : 2
				}

			}
, 			{
				"box" : 				{
					"maxclass" : "newobj",
					"text" : "serial a 57600",
					"id" : "obj-5",
					"fontsize" : 10.0,
					"outlettype" : [ "int", "" ],
					"fontname" : "Arial",
					"numinlets" : 1,
					"patching_rect" : [ 119.0, 245.0, 85.0, 18.0 ],
					"numoutlets" : 2
				}

			}
, 			{
				"box" : 				{
					"maxclass" : "newobj",
					"text" : "notein",
					"id" : "obj-6",
					"fontsize" : 10.0,
					"outlettype" : [ "int", "int", "int" ],
					"fontname" : "Arial",
					"numinlets" : 1,
					"patching_rect" : [ 119.0, 70.0, 40.0, 18.0 ],
					"numoutlets" : 3
				}

			}
 ],
		"lines" : [ 			{
				"patchline" : 				{
					"source" : [ "obj-9", 0 ],
					"destination" : [ "obj-5", 0 ],
					"hidden" : 0,
					"midpoints" : [  ]
				}

			}
, 			{
				"patchline" : 				{
					"source" : [ "obj-5", 0 ],
					"destination" : [ "obj-40", 0 ],
					"hidden" : 0,
					"midpoints" : [  ]
				}

			}
, 			{
				"patchline" : 				{
					"source" : [ "obj-8", 0 ],
					"destination" : [ "obj-3", 1 ],
					"hidden" : 0,
					"midpoints" : [  ]
				}

			}
, 			{
				"patchline" : 				{
					"source" : [ "obj-8", 0 ],
					"destination" : [ "obj-4", 1 ],
					"hidden" : 0,
					"midpoints" : [ 258.5, 122.0, 164.5, 122.0 ]
				}

			}
, 			{
				"patchline" : 				{
					"source" : [ "obj-7", 0 ],
					"destination" : [ "obj-3", 0 ],
					"hidden" : 0,
					"midpoints" : [  ]
				}

			}
, 			{
				"patchline" : 				{
					"source" : [ "obj-7", 0 ],
					"destination" : [ "obj-4", 0 ],
					"hidden" : 0,
					"midpoints" : [ 194.5, 112.5, 128.5, 112.5 ]
				}

			}
, 			{
				"patchline" : 				{
					"source" : [ "obj-6", 1 ],
					"destination" : [ "obj-3", 1 ],
					"hidden" : 0,
					"midpoints" : [ 139.0, 136.0, 239.5, 136.0 ]
				}

			}
, 			{
				"patchline" : 				{
					"source" : [ "obj-6", 0 ],
					"destination" : [ "obj-3", 0 ],
					"hidden" : 0,
					"midpoints" : [ 128.5, 136.0, 226.5, 136.0 ]
				}

			}
, 			{
				"patchline" : 				{
					"source" : [ "obj-1", 0 ],
					"destination" : [ "obj-2", 0 ],
					"hidden" : 0,
					"midpoints" : [  ]
				}

			}
, 			{
				"patchline" : 				{
					"source" : [ "obj-4", 1 ],
					"destination" : [ "obj-1", 0 ],
					"hidden" : 0,
					"midpoints" : [  ]
				}

			}
, 			{
				"patchline" : 				{
					"source" : [ "obj-6", 1 ],
					"destination" : [ "obj-4", 1 ],
					"hidden" : 0,
					"midpoints" : [ 139.0, 146.0, 164.5, 146.0 ]
				}

			}
, 			{
				"patchline" : 				{
					"source" : [ "obj-4", 0 ],
					"destination" : [ "obj-5", 0 ],
					"hidden" : 0,
					"midpoints" : [  ]
				}

			}
, 			{
				"patchline" : 				{
					"source" : [ "obj-2", 0 ],
					"destination" : [ "obj-5", 0 ],
					"hidden" : 0,
					"midpoints" : [ 173.5, 239.0, 128.5, 239.0 ]
				}

			}
, 			{
				"patchline" : 				{
					"source" : [ "obj-6", 0 ],
					"destination" : [ "obj-4", 0 ],
					"hidden" : 0,
					"midpoints" : [  ]
				}

			}
, 			{
				"patchline" : 				{
					"source" : [ "obj-13", 0 ],
					"destination" : [ "obj-12", 0 ],
					"hidden" : 0,
					"midpoints" : [  ]
				}

			}
, 			{
				"patchline" : 				{
					"source" : [ "obj-13", 0 ],
					"destination" : [ "obj-15", 0 ],
					"hidden" : 0,
					"midpoints" : [  ]
				}

			}
, 			{
				"patchline" : 				{
					"source" : [ "obj-10", 0 ],
					"destination" : [ "obj-7", 0 ],
					"hidden" : 0,
					"midpoints" : [  ]
				}

			}
, 			{
				"patchline" : 				{
					"source" : [ "obj-12", 0 ],
					"destination" : [ "obj-10", 0 ],
					"hidden" : 0,
					"midpoints" : [  ]
				}

			}
, 			{
				"patchline" : 				{
					"source" : [ "obj-15", 0 ],
					"destination" : [ "obj-16", 0 ],
					"hidden" : 0,
					"midpoints" : [  ]
				}

			}
, 			{
				"patchline" : 				{
					"source" : [ "obj-16", 0 ],
					"destination" : [ "obj-8", 0 ],
					"hidden" : 0,
					"midpoints" : [  ]
				}

			}
 ]
	}

}
